<svg xmlns="http://www.w3.org/2000/svg" width="59.568" height="72" viewBox="0 0 59.568 72">
  <g id="Group_2217" data-name="Group 2217" transform="translate(-845.505 -401.543)">
    <path id="Path_8669" data-name="Path 8669" d="M875.194,401.543h.282a1.281,1.281,0,0,0,.172.281,37.867,37.867,0,0,0,11.713,7.766,42.153,42.153,0,0,0,14.215,3.1c1.139.057,2.278.109,3.428.164.015.141.034.232.034.323,0,6.357.108,12.717-.044,19.07a55.19,55.19,0,0,1-2.5,15.431,36.591,36.591,0,0,1-12.264,18.044,49.73,49.73,0,0,1-14.5,7.761,1.279,1.279,0,0,1-.794,0,55.278,55.278,0,0,1-9.869-4.567,37.1,37.1,0,0,1-17.352-22.787,68.6,68.6,0,0,1-2.193-17.538c-.065-5.09.063-10.182.108-15.273a3.651,3.651,0,0,1,.051-.437c1.823-.114,3.6-.189,5.374-.343a38.18,38.18,0,0,0,21.049-8.168C873.193,403.5,874.168,402.488,875.194,401.543Zm-2.371,37.968-5.29-5.369-4.371,4.346,9.652,9.66,14.639-14.638-4.318-4.324Z" transform="translate(0 0)" fill="#09b0dc"/>
  </g>
</svg>
