<svg xmlns="http://www.w3.org/2000/svg" width="72" height="62.119" viewBox="0 0 72 62.119">
  <g id="Group_2215" data-name="Group 2215" transform="translate(-768.75 -375.107)">
    <path id="Path_8662" data-name="Path 8662" d="M768.75,578.25h13.139c.465,1.87.8,3.665,1.363,5.39a21.524,21.524,0,0,0,5.24,8.467,2.1,2.1,0,0,1,.626,2.358,2.775,2.775,0,0,1-.616.922q-3.039,3.075-6.11,6.12a2.127,2.127,0,0,1-3.322-.05,35.777,35.777,0,0,1-10-20.014c-.121-.78-.212-1.565-.317-2.348Z" transform="translate(0 -165.054)" fill="#09b0dc"/>
    <path id="Path_8663" data-name="Path 8663" d="M768.75,460.377c.235-1.474.413-2.958.713-4.418a35.311,35.311,0,0,1,8.094-16.275,2.6,2.6,0,0,0,.188-.277l9.42,9.453a22.743,22.743,0,0,0-5.1,12.361H768.75Z" transform="translate(0 -52.243)" fill="#09b0dc"/>
    <path id="Path_8664" data-name="Path 8664" d="M1073.184,461.66h-13.307a22.719,22.719,0,0,0-5.055-12.289l9.392-9.425a34.9,34.9,0,0,1,5.173,7.6,35.4,35.4,0,0,1,3.677,12.726,4.28,4.28,0,0,0,.119.541Z" transform="translate(-232.434 -52.683)" fill="#09b0dc"/>
    <path id="Path_8665" data-name="Path 8665" d="M1084.6,579.094c-.236,1.5-.408,3.008-.719,4.49a35.5,35.5,0,0,1-9.642,17.918,2.127,2.127,0,0,1-3.274.016c-.669-.649-1.352-1.283-2.092-1.985l.583-.361a6.294,6.294,0,0,0,2.141-8.651c-.753-1.267-1.594-2.481-2.364-3.738a.988.988,0,0,1-.085-.743c.438-1.256,1-2.474,1.368-3.749s.564-2.6.863-4.039h13.22Z" transform="translate(-243.848 -165.054)" fill="#09b0dc"/>
    <path id="Path_8666" data-name="Path 8666" d="M925.461,538.39a6.611,6.611,0,0,1,4.188-6.114,6.369,6.369,0,0,1,7.257,1.677c1.984,2.394,3.855,4.895,5.612,7.461,2.976,4.346,5.822,8.781,8.727,13.176a2.262,2.262,0,0,1,.387,2.118,2.1,2.1,0,0,1-3.238,1c-2.562-1.642-5.145-3.256-7.65-4.984q-6.215-4.286-12.333-8.71A6.641,6.641,0,0,1,925.461,538.39Z" transform="translate(-127.328 -127.308)" fill="#09b0dc"/>
    <path id="Path_8667" data-name="Path 8667" d="M993.939,384.077l-9.416,9.416a22.654,22.654,0,0,0-12.3-5.075V375.107A35.814,35.814,0,0,1,993.939,384.077Z" transform="translate(-165.323 0)" fill="#09b0dc"/>
    <path id="Path_8668" data-name="Path 8668" d="M833.341,384.111a35.851,35.851,0,0,1,21.718-9v13.307a22.731,22.731,0,0,0-12.311,5.107Z" transform="translate(-52.48 -0.006)" fill="#09b0dc"/>
  </g>
</svg>
