<svg xmlns="http://www.w3.org/2000/svg" width="68.396" height="72" viewBox="0 0 68.396 72">
  <g id="Group_2222" data-name="Group 2222" transform="translate(-766.828 -336.635)">
    <path id="Path_8674" data-name="Path 8674" d="M798.919,408.635a6.373,6.373,0,0,1-3.38-1.853,5.611,5.611,0,0,1,4.114-9.375c2.342-.066,4.687-.035,7.031-.009a2.1,2.1,0,0,1,2.151,2.275c.03,1.265.008,2.531.008,3.8,0,.25,0,.5,0,.758a18.163,18.163,0,0,0,16.045-16.111,23.113,23.113,0,0,1-2.5-1.406,7.833,7.833,0,0,1-3.293-6.588c-.02-3.022-.09-6.053.106-9.064a7.483,7.483,0,0,1,4.956-6.665c.637-.27.867-.486.818-1.222a23.991,23.991,0,0,0-44.784-10.2,23.649,23.649,0,0,0-3.123,10.614c-.021.4.116.52.448.643a7.913,7.913,0,0,1,5.285,6.057,7.246,7.246,0,0,1,.166,1.532c0,3,.1,6.005-.057,9a7.953,7.953,0,0,1-8.128,7.5,8.036,8.036,0,0,1-7.924-7.96q-.055-4.218,0-8.438a7.931,7.931,0,0,1,5.423-7.669c.543-.2.562-.534.585-.958a28.223,28.223,0,0,1,10.578-20.474,28.219,28.219,0,0,1,45.428,17.528c.172,1.037.254,2.091.341,3.14a.747.747,0,0,0,.565.751,7.985,7.985,0,0,1,5.44,7.806q.025,4.008,0,8.016a7.977,7.977,0,0,1-5.52,7.816.767.767,0,0,0-.586.738,21.73,21.73,0,0,1-2.608,8.244,22.257,22.257,0,0,1-14.772,11.188c-1.155.277-2.347.4-3.522.59Z" fill="#09b0dc"/>
    <path id="Path_8675" data-name="Path 8675" d="M914.019,444.263h5.653c0-1.167,0-2.306,0-3.445,0-.375-.013-.751.008-1.124a1.691,1.691,0,0,1,1.016-1.56,1.625,1.625,0,0,1,1.776.262,9.461,9.461,0,0,1-.8,15.711.961.961,0,0,0-.5.964c.011,5.015,0,10.029.009,15.044a4.437,4.437,0,0,1-2.1,4.109,4.348,4.348,0,0,1-6.575-4.039c.031-4.991,0-9.982.021-14.973a1.219,1.219,0,0,0-.672-1.221,9.444,9.444,0,0,1-.635-15.6,1.667,1.667,0,0,1,1.843-.224,1.692,1.692,0,0,1,.952,1.6C914.025,441.245,914.019,442.719,914.019,444.263Z" transform="translate(-115.817 -83.49)" fill="#09b0dc"/>
  </g>
</svg>
