<svg xmlns="http://www.w3.org/2000/svg" width="72" height="71.987" viewBox="0 0 72 71.987">
  <g id="Group_2220" data-name="Group 2220" transform="translate(-792.748 -372.753)">
    <path id="Path_8670" data-name="Path 8670" d="M896.734,545.18c3.3-2.643,6.456-5.169,9.612-7.693,1.213-.97,2.4-1.968,3.651-2.892a7.746,7.746,0,0,1,9.655.355,4.8,4.8,0,0,1,.579,7.058q-5.6,6.518-11.233,13.012-3.833,4.437-7.664,8.876a11.627,11.627,0,0,1-9.232,4.249q-13.135-.006-26.27,0h-.842V543.165c1.659-.232,3.356-.574,5.068-.687a22.022,22.022,0,0,1,11.512,2.291,2.511,2.511,0,0,0,1.072.227c2.249.02,4.5-.021,6.748.019a9.034,9.034,0,0,1,8.967,8.8,3.847,3.847,0,0,1-3.954,4.044c-4.9.016-9.8,0-14.7.006a6.39,6.39,0,0,0-.723.012,1.256,1.256,0,0,0-1.175,1.291,1.242,1.242,0,0,0,1.135,1.249,4.21,4.21,0,0,0,.722.017c4.66,0,9.326-.156,13.977.045,4.436.192,8.341-3.239,7.051-8.831a11.726,11.726,0,0,0-3.354-6C897.183,545.5,897,545.382,896.734,545.18Z" transform="translate(-56.765 -125.976)" fill="#09b0dc"/>
    <path id="Path_8671" data-name="Path 8671" d="M894.744,408.745a18,18,0,1,1,18-17.969A18.008,18.008,0,0,1,894.744,408.745ZM894.7,403.6A12.854,12.854,0,1,0,881.9,390.681,12.88,12.88,0,0,0,894.7,403.6Z" transform="translate(-66.007 0)" fill="#09b0dc"/>
    <path id="Path_8672" data-name="Path 8672" d="M792.748,590.831q0-6.186,0-12.372c0-1.3.417-1.711,1.741-1.712q4.7,0,9.4,0c1.3,0,1.712.419,1.713,1.742q0,12.412,0,24.824c0,1.3-.421,1.713-1.742,1.713q-4.7,0-9.4,0c-1.3,0-1.711-.42-1.711-1.742Q792.746,597.057,792.748,590.831Z" transform="translate(0 -160.288)" fill="#09b0dc"/>
    <path id="Path_8673" data-name="Path 8673" d="M912.753,418.987a10.283,10.283,0,1,1,10.214,10.332A10.292,10.292,0,0,1,912.753,418.987Zm14.138-2.735a3.8,3.8,0,0,0-1.946-3.106c-.354-.208-.619-.364-.693-.85a1.252,1.252,0,0,0-2.434,0,1.082,1.082,0,0,1-.684.857,3.812,3.812,0,0,0,.891,7.02c.384.1.8.092,1.186.172a1.243,1.243,0,0,1,1.1,1.282,1.277,1.277,0,0,1-1.131,1.256,1.3,1.3,0,0,1-1.388-.972c-.034-.127-.025-.266-.049-.4a1.3,1.3,0,0,0-1.374-1.179,1.282,1.282,0,0,0-1.174,1.453,3.726,3.726,0,0,0,1.933,3.138,1.1,1.1,0,0,1,.691.853,1.251,1.251,0,0,0,2.433.006,1.1,1.1,0,0,1,.692-.853,3.835,3.835,0,0,0-1.288-7.13c-.262-.045-.539-.015-.8-.069a1.276,1.276,0,0,1,.038-2.532,1.255,1.255,0,0,1,1.384.97,2.941,2.941,0,0,1,.051.4,1.3,1.3,0,0,0,1.375,1.178A1.348,1.348,0,0,0,926.891,416.252Z" transform="translate(-94.294 -28.287)" fill="#09b0dc"/>
  </g>
</svg>
